<svg xmlns="http://www.w3.org/2000/svg" xmlns:xlink="http://www.w3.org/1999/xlink" width="1366" zoomAndPan="magnify" viewBox="0 0 1024.5 576" height="768" preserveAspectRatio="xMidYMid meet" version="1.2"><defs><clipPath id="6efbfed5b3"><path d="M 0 0.140625 L 1024 0.140625 L 1024 575.859375 L 0 575.859375 Z M 0 0.140625 "/></clipPath><clipPath id="7f33b05575"><path d="M 379.855469 469.511719 L 644.425781 469.511719 L 644.425781 548.070312 L 379.855469 548.070312 Z M 379.855469 469.511719 "/></clipPath><clipPath id="a52e53835a"><path d="M 379.855469 548 L 644.425781 548 L 644.425781 575.859375 L 379.855469 575.859375 Z M 379.855469 548 "/></clipPath><clipPath id="0b1376c9b4"><path d="M 443 377.753906 L 582 377.753906 L 582 516 L 443 516 Z M 443 377.753906 "/></clipPath><clipPath id="b14f87d1ba"><path d="M 70.484375 57.710938 L 343.761719 57.710938 L 343.761719 100.949219 L 70.484375 100.949219 Z M 70.484375 57.710938 "/></clipPath><clipPath id="8a91df1ff5"><path d="M 92.101562 57.710938 L 322.011719 57.710938 C 327.746094 57.710938 333.246094 59.988281 337.300781 64.042969 C 341.355469 68.097656 343.632812 73.597656 343.632812 79.332031 C 343.632812 85.066406 341.355469 90.5625 337.300781 94.617188 C 333.246094 98.671875 327.746094 100.949219 322.011719 100.949219 L 92.101562 100.949219 C 86.367188 100.949219 80.871094 98.671875 76.816406 94.617188 C 72.761719 90.5625 70.484375 85.066406 70.484375 79.332031 C 70.484375 73.597656 72.761719 68.097656 76.816406 64.042969 C 80.871094 59.988281 86.367188 57.710938 92.101562 57.710938 Z M 92.101562 57.710938 "/></clipPath></defs><g id="58ce1f0b57"><g clip-rule="nonzero" clip-path="url(#6efbfed5b3)"><path style=" stroke:none;fill-rule:nonzero;fill:#ffffff;fill-opacity:1;" d="M 0 0.140625 L 1024 0.140625 L 1024 575.859375 L 0 575.859375 Z M 0 0.140625 "/><path style=" stroke:none;fill-rule:nonzero;fill:#ffffff;fill-opacity:1;" d="M 0 0.140625 L 1024 0.140625 L 1024 575.859375 L 0 575.859375 Z M 0 0.140625 "/></g><g style="fill:#000000;fill-opacity:1;"><g transform="translate(70.483051, 171.96186)"><path style="stroke:none" d="M 34.953125 11.40625 L 34.953125 -52.125 L 43.578125 -52.125 L 43.578125 -27.015625 L 52.9375 -27.015625 L 52.9375 -52.125 L 61.5 -52.125 L 61.5 11.40625 L 52.9375 11.40625 L 52.9375 -18.1875 L 43.578125 -18.1875 L 43.578125 11.40625 Z M 3.59375 8.140625 L 3.59375 -50.765625 L 12.6875 -50.765625 L 12.6875 -0.671875 L 31.703125 -0.671875 L 31.703125 8.140625 Z M 3.59375 8.140625 "/></g></g><g style="fill:#000000;fill-opacity:1;"><g transform="translate(135.644976, 171.96186)"><path style="stroke:none" d="M 46.296875 11.40625 L 46.296875 -52.125 L 55.71875 -52.125 L 55.71875 -27.6875 L 65.15625 -27.6875 L 65.15625 -18.875 L 55.71875 -18.875 L 55.71875 11.40625 Z M 2.640625 8.828125 L 2.640625 -1.15625 C 8.660156 -2.238281 13.421875 -3.695312 16.921875 -5.53125 C 20.429688 -7.363281 22.929688 -9.679688 24.421875 -12.484375 C 25.921875 -15.296875 26.671875 -18.671875 26.671875 -22.609375 L 26.671875 -42.015625 L 2.640625 -42.015625 L 2.640625 -50.765625 L 36.109375 -50.765625 L 36.109375 -22.609375 C 36.109375 -16.128906 34.929688 -10.804688 32.578125 -6.640625 C 30.222656 -2.484375 26.578125 0.800781 21.640625 3.21875 C 16.710938 5.644531 10.378906 7.515625 2.640625 8.828125 Z M 2.640625 8.828125 "/></g></g><g style="fill:#000000;fill-opacity:1;"><g transform="translate(200.813974, 171.96186)"><path style="stroke:none" d=""/></g></g><g style="fill:#000000;fill-opacity:1;"><g transform="translate(221.17707, 171.96186)"><path style="stroke:none" d="M 51.71875 11.40625 L 51.71875 -52.125 L 53.890625 -52.125 L 53.890625 -25.390625 L 65.15625 -25.390625 L 65.15625 -23.421875 L 53.890625 -23.421875 L 53.890625 11.40625 Z M 3.046875 7.671875 L 3.046875 -51.109375 L 5.21875 -51.109375 L 5.21875 -25.796875 L 36.046875 -25.796875 L 36.046875 -51.109375 L 38.21875 -51.109375 L 38.21875 7.671875 Z M 5.21875 5.703125 L 36.046875 5.703125 L 36.046875 -23.828125 L 5.21875 -23.828125 Z M 5.21875 5.703125 "/></g></g><g style="fill:#000000;fill-opacity:1;"><g transform="translate(286.338995, 171.96186)"><path style="stroke:none" d="M 51.71875 11.40625 L 51.71875 -52.125 L 53.890625 -52.125 L 53.890625 -22.40625 L 65.15625 -22.40625 L 65.15625 -20.4375 L 53.890625 -20.4375 L 53.890625 11.40625 Z M 3.046875 7.671875 L 3.046875 -22.40625 L 34.6875 -22.40625 L 34.6875 -48.796875 L 3.046875 -48.796875 L 3.046875 -50.765625 L 36.859375 -50.765625 L 36.859375 -20.4375 L 5.21875 -20.4375 L 5.21875 5.703125 L 44.328125 5.703125 L 44.328125 7.671875 Z M 3.046875 7.671875 "/></g></g><g style="fill:#000000;fill-opacity:1;"><g transform="translate(351.50092, 171.96186)"><path style="stroke:none" d="M 6.859375 -29.328125 L 6.859375 -50.765625 L 9.03125 -50.765625 L 9.03125 -31.296875 L 58.234375 -31.296875 L 58.234375 -29.328125 Z M 1.828125 -16.09375 L 1.828125 -18.0625 L 63.265625 -18.0625 L 63.265625 -16.09375 Z M 6.859375 11.40625 L 6.859375 -8.015625 L 9.03125 -8.015625 L 9.03125 9.4375 L 58.234375 9.4375 L 58.234375 11.40625 Z M 6.859375 11.40625 "/></g></g><g style="fill:#000000;fill-opacity:1;"><g transform="translate(416.673456, 171.96186)"><path style="stroke:none" d=""/></g></g><g style="fill:#000000;fill-opacity:1;"><g transform="translate(70.483051, 258.919417)"><path style="stroke:none" d="M 33.59375 -16.703125 L 63.265625 -16.703125 L 63.265625 -14.734375 L 1.828125 -14.734375 L 1.828125 -16.703125 L 31.421875 -16.703125 L 31.421875 -29.328125 L 6.859375 -29.328125 L 6.859375 -50.765625 L 9.03125 -50.765625 L 9.03125 -31.296875 L 58.234375 -31.296875 L 58.234375 -29.328125 L 33.59375 -29.328125 Z M 9.03125 -8.015625 L 9.03125 9.4375 L 58.234375 9.4375 L 58.234375 11.40625 L 6.859375 11.40625 L 6.859375 -8.015625 Z M 9.03125 -8.015625 "/></g></g><g style="fill:#000000;fill-opacity:1;"><g transform="translate(135.644976, 258.919417)"><path style="stroke:none" d="M 53.890625 -31.5 L 65.15625 -31.5 L 65.15625 -29.53125 L 53.890625 -29.53125 L 53.890625 -5.5 L 51.71875 -5.5 L 51.71875 -52.125 L 53.890625 -52.125 Z M 19.34375 -31.703125 C 17.894531 -28.710938 15.753906 -25.945312 12.921875 -23.40625 C 10.097656 -20.875 6.289062 -18.726562 1.5 -16.96875 L 1.5 -19.28125 C 5.570312 -20.945312 8.875 -22.945312 11.40625 -25.28125 C 13.9375 -27.613281 15.867188 -30.179688 17.203125 -32.984375 C 18.535156 -35.796875 19.441406 -38.738281 19.921875 -41.8125 C 20.398438 -44.882812 20.640625 -47.984375 20.640625 -51.109375 L 22.8125 -51.109375 C 22.8125 -48.253906 22.660156 -45.378906 22.359375 -42.484375 C 22.066406 -39.585938 21.425781 -36.804688 20.4375 -34.140625 C 22.695312 -31.242188 25.507812 -28.503906 28.875 -25.921875 C 32.25 -23.347656 36.609375 -21.132812 41.953125 -19.28125 L 41.953125 -16.96875 C 38.367188 -18.238281 35.207031 -19.582031 32.46875 -21 C 29.738281 -22.425781 27.320312 -24.019531 25.21875 -25.78125 C 23.113281 -27.550781 21.15625 -29.523438 19.34375 -31.703125 Z M 8.625 -9.09375 L 8.625 9.4375 L 55.25 9.4375 L 55.25 11.40625 L 6.453125 11.40625 L 6.453125 -9.09375 Z M 8.625 -9.09375 "/></g></g><g style="fill:#000000;fill-opacity:1;"><g transform="translate(200.806902, 258.919417)"><path style="stroke:none" d="M 39.296875 11.40625 L 39.296875 -52.125 L 41.46875 -52.125 L 41.46875 -24.03125 L 58.03125 -24.03125 L 58.03125 -52.125 L 60.203125 -52.125 L 60.203125 11.40625 L 58.03125 11.40625 L 58.03125 -22.0625 L 41.46875 -22.0625 L 41.46875 11.40625 Z M 4.890625 7.671875 L 4.890625 -50.765625 L 31.90625 -50.765625 L 31.90625 -48.796875 L 7.0625 -48.796875 L 7.0625 5.703125 L 34.609375 5.703125 L 34.609375 7.671875 Z M 4.890625 7.671875 "/></g></g><g style="fill:#000000;fill-opacity:1;"><g transform="translate(265.968815, 258.919417)"><path style="stroke:none" d="M 57.15625 -6.859375 L 57.15625 -31.21875 L 39.640625 -31.21875 L 39.640625 -33.1875 L 57.15625 -33.1875 L 57.15625 -52.125 L 59.328125 -52.125 L 59.328125 -6.859375 Z M 5.765625 -16.765625 L 5.765625 -18.9375 C 12.234375 -19.800781 17.515625 -21.382812 21.609375 -23.6875 C 25.710938 -26 28.75 -29.203125 30.71875 -33.296875 C 32.6875 -37.390625 33.671875 -42.46875 33.671875 -48.53125 L 33.671875 -48.796875 L 5.765625 -48.796875 L 5.765625 -50.765625 L 35.84375 -50.765625 L 35.84375 -48.53125 C 35.84375 -41.96875 34.789062 -36.476562 32.6875 -32.0625 C 30.582031 -27.65625 27.320312 -24.207031 22.90625 -21.71875 C 18.5 -19.226562 12.785156 -17.578125 5.765625 -16.765625 Z M 10.515625 11.40625 L 10.515625 -10.453125 L 12.6875 -10.453125 L 12.6875 9.4375 L 60 9.4375 L 60 11.40625 Z M 10.515625 11.40625 "/></g></g><g style="fill:#000000;fill-opacity:1;"><g transform="translate(331.130751, 258.919417)"><path style="stroke:none" d="M 55.390625 -7.609375 L 56.75 -48.796875 L 6.171875 -48.796875 L 6.171875 -50.765625 L 58.921875 -50.765625 L 57.5625 -7.609375 Z M 1.828125 8.34375 L 1.828125 6.375 L 28.171875 6.375 L 28.171875 -25.71875 L 30.34375 -25.71875 L 30.34375 6.375 L 63.265625 6.375 L 63.265625 8.34375 Z M 1.828125 8.34375 "/></g></g><g style="fill:#000000;fill-opacity:1;"><g transform="translate(396.292688, 258.919417)"><path style="stroke:none" d="M 4.75 16.5 L 4.75 13.984375 C 5.695312 13.617188 6.382812 13.03125 6.8125 12.21875 C 7.25 11.40625 7.46875 9.890625 7.46875 7.671875 L 4.75 7.671875 L 4.75 1.421875 L 10.1875 1.421875 L 10.1875 7.671875 C 10.1875 10.472656 9.820312 12.503906 9.09375 13.765625 C 8.375 15.035156 6.925781 15.945312 4.75 16.5 Z M 4.75 16.5 "/></g></g><g style="fill:#503b25;fill-opacity:1;"><g transform="translate(527.612962, 353.500325)"><path style="stroke:none" d="M 30.109375 -23.859375 C 30.367188 -22.898438 30.382812 -22.003906 30.15625 -21.171875 C 29.925781 -20.347656 29.742188 -19.707031 29.609375 -19.25 C 28.785156 -17.5625 28.132812 -15.457031 27.65625 -12.9375 C 27.1875 -10.425781 27.625 -8.207031 28.96875 -6.28125 C 29.695312 -5.175781 30.441406 -4.394531 31.203125 -3.9375 C 31.960938 -3.476562 32.285156 -2.476562 32.171875 -0.9375 C 34.160156 -2.65625 36.0625 -4.8125 37.875 -7.40625 C 39.6875 -10 41.113281 -12.84375 42.15625 -15.9375 C 43.207031 -19.039062 43.578125 -22.238281 43.265625 -25.53125 C 43.179688 -26.40625 43.734375 -27.640625 44.921875 -29.234375 C 46.109375 -30.835938 47.8125 -31.742188 50.03125 -31.953125 C 51.539062 -32.097656 52.664062 -31.804688 53.40625 -31.078125 C 54.144531 -30.347656 54.644531 -29.566406 54.90625 -28.734375 C 55.164062 -27.910156 55.296875 -27.5 55.296875 -27.5 C 55.515625 -25.1875 55.296875 -22.519531 54.640625 -19.5 C 53.992188 -16.476562 53.003906 -13.515625 51.671875 -10.609375 C 50.335938 -7.703125 48.75 -5.125 46.90625 -2.875 C 49.007812 -3.257812 51.3125 -3.507812 53.8125 -3.625 C 56.320312 -3.738281 58.75 -3.679688 61.09375 -3.453125 C 63.445312 -3.222656 65.425781 -2.691406 67.03125 -1.859375 C 68.425781 -1.285156 69.507812 -0.476562 70.28125 0.5625 C 71.0625 1.613281 71.132812 2.617188 70.5 3.578125 C 69.664062 5.085938 68.390625 5.75 66.671875 5.5625 C 61.910156 4.5 57.160156 4.28125 52.421875 4.90625 C 47.691406 5.539062 42.878906 6.5 37.984375 7.78125 C 35.054688 9.039062 32.265625 10.3125 29.609375 11.59375 C 26.953125 12.882812 24.238281 14.023438 21.46875 15.015625 C 20.34375 15.304688 18.742188 15.4375 16.671875 15.40625 C 14.609375 15.375 13.164062 14.820312 12.34375 13.75 C 11.625 12.820312 11.65625 11.738281 12.4375 10.5 C 13.21875 9.257812 14.03125 8.414062 14.875 7.96875 C 17.238281 6.40625 19.507812 5.09375 21.6875 4.03125 C 23.875 2.96875 25.785156 2.132812 27.421875 1.53125 L 27.296875 1.546875 C 24.722656 1.785156 22.5 0.742188 20.625 -1.578125 C 18.75 -3.898438 17.644531 -6.789062 17.3125 -10.25 C 16.976562 -13.71875 17.070312 -16.460938 17.59375 -18.484375 C 18.113281 -20.503906 18.6875 -21.953125 19.3125 -22.828125 C 19.945312 -23.703125 20.265625 -24.140625 20.265625 -24.140625 C 20.921875 -24.722656 21.765625 -25.269531 22.796875 -25.78125 C 23.828125 -26.289062 24.921875 -26.597656 26.078125 -26.703125 C 27.410156 -26.835938 28.398438 -26.550781 29.046875 -25.84375 C 29.703125 -25.144531 30.054688 -24.484375 30.109375 -23.859375 Z M 59.453125 -38.90625 C 59.566406 -37.664062 59.03125 -36.695312 57.84375 -36 C 56.65625 -35.300781 55.003906 -35.210938 52.890625 -35.734375 C 51.328125 -36.117188 49.421875 -36.132812 47.171875 -35.78125 C 44.921875 -35.425781 42.664062 -34.894531 40.40625 -34.1875 C 38.144531 -33.476562 36.234375 -32.820312 34.671875 -32.21875 C 33.117188 -31.625 32.253906 -31.320312 32.078125 -31.3125 C 30.441406 -30.519531 28.445312 -29.539062 26.09375 -28.375 C 23.75 -27.21875 21.335938 -26.003906 18.859375 -24.734375 C 16.390625 -23.472656 14.125 -22.335938 12.0625 -21.328125 C 11.28125 -21.066406 10.222656 -20.847656 8.890625 -20.671875 C 7.566406 -20.503906 6.320312 -20.632812 5.15625 -21.0625 C 4 -21.5 3.347656 -22.46875 3.203125 -23.96875 C 3.109375 -24.945312 3.332031 -25.863281 3.875 -26.71875 C 4.425781 -27.582031 5.128906 -28.234375 5.984375 -28.671875 C 6.992188 -29.304688 8.332031 -29.992188 10 -30.734375 C 11.675781 -31.484375 13.394531 -32.300781 15.15625 -33.1875 C 16.914062 -34.070312 18.335938 -34.921875 19.421875 -35.734375 C 22.972656 -37.960938 25.863281 -41.203125 28.09375 -45.453125 C 30.332031 -49.703125 31.742188 -53.914062 32.328125 -58.09375 C 32.785156 -60.90625 33.390625 -63.242188 34.140625 -65.109375 C 34.898438 -66.984375 36.789062 -68.0625 39.8125 -68.34375 C 42.113281 -68.570312 43.554688 -67.992188 44.140625 -66.609375 C 44.722656 -65.234375 45.0625 -64.054688 45.15625 -63.078125 C 45.15625 -59.398438 44.5 -55.726562 43.1875 -52.0625 C 41.882812 -48.40625 40.21875 -45.046875 38.1875 -41.984375 C 41.519531 -42.753906 44.914062 -43.28125 48.375 -43.5625 C 51.84375 -43.851562 54.476562 -43.457031 56.28125 -42.375 C 56.5625 -42.3125 57.132812 -41.984375 58 -41.390625 C 58.863281 -40.804688 59.347656 -39.976562 59.453125 -38.90625 Z M 46.421875 -82.15625 C 46.097656 -80.789062 45.332031 -79.867188 44.125 -79.390625 C 42.914062 -78.910156 41.828125 -78.625 40.859375 -78.53125 C 38.617188 -78.488281 35.988281 -78.078125 32.96875 -77.296875 C 29.957031 -76.523438 26.867188 -75.535156 23.703125 -74.328125 C 20.546875 -73.128906 17.632812 -71.953125 14.96875 -70.796875 C 12.3125 -69.640625 10.21875 -68.675781 8.6875 -67.90625 C 7.976562 -67.65625 7.054688 -67.140625 5.921875 -66.359375 C 4.785156 -65.585938 3.335938 -65.070312 1.578125 -64.8125 C 0.679688 -64.71875 -0.359375 -64.816406 -1.546875 -65.109375 C -2.742188 -65.398438 -3.628906 -66.234375 -4.203125 -67.609375 C -4.703125 -68.921875 -4.273438 -70.285156 -2.921875 -71.703125 C -1.578125 -73.128906 -0.300781 -74.078125 0.90625 -74.546875 C 1.175781 -74.671875 2.296875 -75.1875 4.265625 -76.09375 C 6.234375 -77 8.75 -78.066406 11.8125 -79.296875 C 14.875 -80.535156 18.234375 -81.734375 21.890625 -82.890625 C 25.546875 -84.046875 29.148438 -84.972656 32.703125 -85.671875 C 36.265625 -86.378906 39.488281 -86.648438 42.375 -86.484375 C 45.195312 -85.941406 46.546875 -84.5 46.421875 -82.15625 Z M 23.0625 -64.984375 C 23.144531 -64.097656 23.050781 -63.191406 22.78125 -62.265625 C 22.507812 -61.347656 22.375 -60.890625 22.375 -60.890625 C 22.007812 -59.160156 21.734375 -57.390625 21.546875 -55.578125 C 21.367188 -53.765625 21.519531 -51.71875 22 -49.4375 C 22.101562 -48.28125 22.328125 -47.359375 22.671875 -46.671875 C 23.015625 -45.984375 23.238281 -45.066406 23.34375 -43.921875 C 23.550781 -41.785156 22.597656 -40.484375 20.484375 -40.015625 C 19.585938 -39.929688 18.769531 -40.03125 18.03125 -40.3125 C 17.289062 -40.601562 16.523438 -41.15625 15.734375 -41.96875 C 13.953125 -43.6875 12.617188 -45.890625 11.734375 -48.578125 C 10.847656 -51.273438 10.398438 -54.03125 10.390625 -56.84375 C 10.390625 -59.664062 10.828125 -62.15625 11.703125 -64.3125 C 12.054688 -65.320312 12.628906 -66.359375 13.421875 -67.421875 C 14.210938 -68.484375 15.179688 -69.070312 16.328125 -69.1875 C 17.578125 -69.300781 18.96875 -69.070312 20.5 -68.5 C 22.03125 -67.9375 22.882812 -66.765625 23.0625 -64.984375 Z M 23.0625 -64.984375 "/></g></g><g clip-rule="nonzero" clip-path="url(#7f33b05575)"><path style=" stroke:none;fill-rule:nonzero;fill:#83807b;fill-opacity:1;" d="M 600.910156 469.65625 L 423.371094 469.65625 L 379.855469 548.015625 L 644.425781 548.015625 L 600.910156 469.65625 "/></g><path style=" stroke:none;fill-rule:nonzero;fill:#282855;fill-opacity:1;" d="M 424.300781 515.199219 L 431.367188 502.472656 L 592.914062 502.472656 L 599.980469 515.199219 L 424.300781 515.199219 "/><g clip-rule="nonzero" clip-path="url(#a52e53835a)"><path style=" stroke:none;fill-rule:nonzero;fill:#d1cabe;fill-opacity:1;" d="M 644.425781 701.589844 L 379.855469 701.589844 L 379.855469 548.015625 L 644.425781 548.015625 L 644.425781 701.589844 "/></g><g clip-rule="nonzero" clip-path="url(#0b1376c9b4)"><path style=" stroke:none;fill-rule:nonzero;fill:#f7eee0;fill-opacity:1;" d="M 581.210938 377.753906 L 443.617188 377.753906 L 443.617188 515.199219 L 581.210938 515.199219 L 581.210938 377.753906 "/></g><path style=" stroke:none;fill-rule:nonzero;fill:#cd3636;fill-opacity:1;" d="M 508.3125 462.257812 L 474.804688 437.765625 L 480.246094 430.335938 L 508.277344 450.824219 L 560.710938 411.988281 L 566.199219 419.382812 L 508.3125 462.257812 "/><g clip-rule="nonzero" clip-path="url(#b14f87d1ba)"><g clip-rule="nonzero" clip-path="url(#8a91df1ff5)"><path style=" stroke:none;fill-rule:nonzero;fill:#050a30;fill-opacity:1;" d="M 70.484375 57.710938 L 343.59375 57.710938 L 343.59375 100.949219 L 70.484375 100.949219 Z M 70.484375 57.710938 "/></g></g><g style="fill:#000000;fill-opacity:1;"><g transform="translate(70.483051, 339.772933)"><path style="stroke:none" d="M 47.234375 -18.265625 L 47.234375 -52.125 L 56.671875 -52.125 L 56.671875 -40.25 L 65.15625 -40.25 L 65.15625 -31.421875 L 56.671875 -31.421875 L 56.671875 -18.265625 Z M 2.640625 -21.859375 L 2.640625 -50.765625 L 40.796875 -50.765625 L 40.796875 -42.359375 L 12.078125 -42.359375 L 12.078125 -30.203125 L 43.234375 -30.203125 L 43.234375 -21.859375 Z M 21.515625 11.75 C 16.085938 11.75 12.082031 10.695312 9.5 8.59375 C 6.925781 6.488281 5.640625 3.398438 5.640625 -0.671875 L 5.640625 -3.46875 C 5.640625 -7.488281 6.925781 -10.5625 9.5 -12.6875 C 12.082031 -14.8125 16.085938 -15.875 21.515625 -15.875 L 41.46875 -15.875 C 46.945312 -15.875 50.960938 -14.8125 53.515625 -12.6875 C 56.078125 -10.5625 57.359375 -7.488281 57.359375 -3.46875 L 57.359375 -0.671875 C 57.359375 3.347656 56.078125 6.421875 53.515625 8.546875 C 50.960938 10.679688 46.945312 11.75 41.46875 11.75 Z M 23.6875 3.328125 L 39.296875 3.328125 C 42.460938 3.328125 44.691406 2.914062 45.984375 2.09375 C 47.273438 1.28125 47.921875 0.0390625 47.921875 -1.625 L 47.921875 -2.515625 C 47.921875 -4.179688 47.273438 -5.421875 45.984375 -6.234375 C 44.691406 -7.054688 42.460938 -7.46875 39.296875 -7.46875 L 23.6875 -7.46875 C 20.519531 -7.46875 18.289062 -7.054688 17 -6.234375 C 15.707031 -5.421875 15.0625 -4.179688 15.0625 -2.515625 L 15.0625 -1.625 C 15.0625 0.0390625 15.707031 1.28125 17 2.09375 C 18.289062 2.914062 20.519531 3.328125 23.6875 3.328125 Z M 23.6875 3.328125 "/></g></g><g style="fill:#000000;fill-opacity:1;"><g transform="translate(135.644976, 339.772933)"><path style="stroke:none" d="M 61.015625 -52.125 L 61.015625 -5.5 L 51.578125 -5.5 L 51.578125 -52.125 Z M 23.625 -26.0625 C 21.675781 -23.300781 19.082031 -21.070312 15.84375 -19.375 C 12.613281 -17.675781 8.691406 -16.21875 4.078125 -15 L 4.078125 -23.625 C 7.285156 -24.613281 9.90625 -25.851562 11.9375 -27.34375 C 13.976562 -28.84375 15.5625 -30.675781 16.6875 -32.84375 C 17.820312 -35.019531 18.601562 -37.613281 19.03125 -40.625 C 19.46875 -43.632812 19.6875 -47.128906 19.6875 -51.109375 L 29.125 -51.109375 C 29.125 -44.097656 28.488281 -38.351562 27.21875 -33.875 C 29.613281 -31.332031 32.222656 -29.234375 35.046875 -27.578125 C 37.878906 -25.929688 41.082031 -24.613281 44.65625 -23.625 L 44.65625 -15 C 40.40625 -16 36.570312 -17.398438 33.15625 -19.203125 C 29.738281 -21.015625 26.5625 -23.300781 23.625 -26.0625 Z M 17.578125 2.984375 L 61.5 2.984375 L 61.5 11.40625 L 8.140625 11.40625 L 8.140625 -10.71875 L 17.578125 -10.71875 Z M 17.578125 2.984375 "/></g></g><g style="fill:#000000;fill-opacity:1;"><g transform="translate(200.806902, 339.772933)"><path style="stroke:none" d="M 52.53125 11.40625 L 52.53125 -52.125 L 61.96875 -52.125 L 61.96875 11.40625 Z M 24.84375 -14.859375 C 18.6875 -14.859375 13.929688 -16.335938 10.578125 -19.296875 C 7.234375 -22.265625 5.5625 -26.535156 5.5625 -32.109375 L 5.5625 -34 C 5.5625 -39.519531 7.234375 -43.773438 10.578125 -46.765625 C 13.929688 -49.753906 18.6875 -51.25 24.84375 -51.25 L 27.015625 -51.25 C 33.210938 -51.25 37.984375 -49.753906 41.328125 -46.765625 C 44.679688 -43.773438 46.359375 -39.519531 46.359375 -34 L 46.359375 -32.109375 C 46.359375 -26.535156 44.679688 -22.265625 41.328125 -19.296875 C 37.984375 -16.335938 33.210938 -14.859375 27.015625 -14.859375 Z M 25.59375 -23.546875 L 26.265625 -23.546875 C 29.660156 -23.546875 32.285156 -24.289062 34.140625 -25.78125 C 35.992188 -27.28125 36.921875 -29.546875 36.921875 -32.578125 L 36.921875 -33.46875 C 36.921875 -36.539062 35.992188 -38.8125 34.140625 -40.28125 C 32.285156 -41.75 29.660156 -42.484375 26.265625 -42.484375 L 25.59375 -42.484375 C 22.195312 -42.484375 19.582031 -41.75 17.75 -40.28125 C 15.914062 -38.8125 15 -36.539062 15 -33.46875 L 15 -32.578125 C 15 -29.546875 15.914062 -27.28125 17.75 -25.78125 C 19.582031 -24.289062 22.195312 -23.546875 25.59375 -23.546875 Z M 3.1875 7.9375 L 3.1875 -0.875 L 48.734375 -0.875 L 48.734375 7.9375 Z M 3.1875 7.9375 "/></g></g><g style="fill:#000000;fill-opacity:1;"><g transform="translate(265.973573, 339.772933)"><path style="stroke:none" d=""/></g></g><g style="fill:#000000;fill-opacity:1;"><g transform="translate(286.336669, 339.772933)"><path style="stroke:none" d="M 44.453125 -33.9375 L 44.453125 -16.421875 L 42.28125 -16.421875 L 42.28125 -52.125 L 44.453125 -52.125 L 44.453125 -35.90625 L 59.65625 -35.90625 L 59.65625 -52.125 L 61.828125 -52.125 L 61.828125 -13.703125 L 59.65625 -13.703125 L 59.65625 -33.9375 Z M 17.640625 -33.125 C 16.460938 -30.40625 14.742188 -27.890625 12.484375 -25.578125 C 10.222656 -23.273438 7.148438 -21.3125 3.265625 -19.6875 L 3.265625 -21.984375 C 6.472656 -23.523438 9.070312 -25.359375 11.0625 -27.484375 C 13.050781 -29.609375 14.566406 -31.945312 15.609375 -34.5 C 16.648438 -37.0625 17.363281 -39.753906 17.75 -42.578125 C 18.132812 -45.410156 18.328125 -48.253906 18.328125 -51.109375 L 20.5 -51.109375 C 20.5 -48.484375 20.382812 -45.847656 20.15625 -43.203125 C 19.925781 -40.554688 19.382812 -37.988281 18.53125 -35.5 C 20.382812 -33.1875 22.65625 -30.976562 25.34375 -28.875 C 28.039062 -26.769531 31.445312 -24.925781 35.5625 -23.34375 L 35.5625 -21.046875 C 31.351562 -22.535156 27.890625 -24.265625 25.171875 -26.234375 C 22.460938 -28.203125 19.953125 -30.5 17.640625 -33.125 Z M 47.03125 -12.21875 C 52.375 -12.21875 56.289062 -11.273438 58.78125 -9.390625 C 61.269531 -7.515625 62.515625 -4.769531 62.515625 -1.15625 L 62.515625 0.671875 C 62.515625 4.253906 61.269531 6.992188 58.78125 8.890625 C 56.289062 10.796875 52.375 11.75 47.03125 11.75 L 24.703125 11.75 C 19.367188 11.75 15.457031 10.796875 12.96875 8.890625 C 10.476562 6.992188 9.234375 4.253906 9.234375 0.671875 L 9.234375 -1.15625 C 9.234375 -4.726562 10.476562 -7.460938 12.96875 -9.359375 C 15.457031 -11.265625 19.367188 -12.21875 24.703125 -12.21875 Z M 60.34375 0.34375 L 60.34375 -0.8125 C 60.34375 -3.894531 59.289062 -6.238281 57.1875 -7.84375 C 55.082031 -9.445312 51.492188 -10.25 46.421875 -10.25 L 25.3125 -10.25 C 20.25 -10.25 16.664062 -9.445312 14.5625 -7.84375 C 12.457031 -6.238281 11.40625 -3.894531 11.40625 -0.8125 L 11.40625 0.34375 C 11.40625 3.414062 12.457031 5.753906 14.5625 7.359375 C 16.664062 8.972656 20.25 9.78125 25.3125 9.78125 L 46.421875 9.78125 C 51.492188 9.78125 55.082031 8.960938 57.1875 7.328125 C 59.289062 5.703125 60.34375 3.375 60.34375 0.34375 Z M 60.34375 0.34375 "/></g></g><g style="fill:#000000;fill-opacity:1;"><g transform="translate(351.498594, 339.772933)"><path style="stroke:none" d="M 51.71875 -16.421875 L 51.71875 -52.125 L 53.890625 -52.125 L 53.890625 -35.90625 L 65.15625 -35.90625 L 65.15625 -33.9375 L 53.890625 -33.9375 L 53.890625 -16.421875 Z M 3.046875 -21.984375 C 9.835938 -22.753906 15.378906 -24.171875 19.671875 -26.234375 C 23.972656 -28.296875 27.15625 -31.15625 29.21875 -34.8125 C 31.28125 -38.476562 32.3125 -43.050781 32.3125 -48.53125 L 32.3125 -48.796875 L 3.046875 -48.796875 L 3.046875 -50.765625 L 34.484375 -50.765625 L 34.484375 -48.53125 C 34.484375 -42.601562 33.382812 -37.632812 31.1875 -33.625 C 28.988281 -29.625 25.582031 -26.503906 20.96875 -24.265625 C 16.351562 -22.023438 10.378906 -20.539062 3.046875 -19.8125 Z M 51.71875 12.078125 L 51.71875 -10.25 L 5.765625 -10.25 L 5.765625 -12.21875 L 53.890625 -12.21875 L 53.890625 12.078125 Z M 51.71875 12.078125 "/></g></g><g style="fill:#000000;fill-opacity:1;"><g transform="translate(416.660519, 339.772933)"><path style="stroke:none" d="M 21.65625 -31.015625 C 16.3125 -31.015625 12.394531 -31.796875 9.90625 -33.359375 C 7.414062 -34.921875 6.171875 -37.148438 6.171875 -40.046875 L 6.171875 -41.75 C 6.171875 -44.6875 7.414062 -46.921875 9.90625 -48.453125 C 12.394531 -49.992188 16.3125 -50.765625 21.65625 -50.765625 L 43.4375 -50.765625 C 48.78125 -50.765625 52.695312 -49.992188 55.1875 -48.453125 C 57.675781 -46.921875 58.921875 -44.6875 58.921875 -41.75 L 58.921875 -40.046875 C 58.921875 -37.109375 57.675781 -34.867188 55.1875 -33.328125 C 52.695312 -31.785156 48.78125 -31.015625 43.4375 -31.015625 Z M 22.265625 -32.984375 L 42.828125 -32.984375 C 47.898438 -32.984375 51.488281 -33.613281 53.59375 -34.875 C 55.695312 -36.144531 56.75 -37.984375 56.75 -40.390625 L 56.75 -41.40625 C 56.75 -43.800781 55.695312 -45.628906 53.59375 -46.890625 C 51.488281 -48.160156 47.898438 -48.796875 42.828125 -48.796875 L 22.265625 -48.796875 C 17.191406 -48.796875 13.601562 -48.160156 11.5 -46.890625 C 9.394531 -45.628906 8.34375 -43.800781 8.34375 -41.40625 L 8.34375 -40.390625 C 8.34375 -38.035156 9.394531 -36.210938 11.5 -34.921875 C 13.601562 -33.628906 17.191406 -32.984375 22.265625 -32.984375 Z M 1.828125 -20.84375 L 1.828125 -22.8125 L 63.265625 -22.8125 L 63.265625 -20.84375 Z M 6.859375 11.40625 L 6.859375 -1.96875 L 56.0625 -1.96875 L 56.0625 -10.921875 L 6.859375 -10.921875 L 6.859375 -12.890625 L 58.234375 -12.890625 L 58.234375 0 L 9.03125 0 L 9.03125 9.4375 L 58.921875 9.4375 L 58.921875 11.40625 Z M 6.859375 11.40625 "/></g></g><g style="fill:#000000;fill-opacity:1;"><g transform="translate(481.833062, 339.772933)"><path style="stroke:none" d=""/></g></g><g style="fill:#000000;fill-opacity:1;"><g transform="translate(502.196159, 339.772933)"><path style="stroke:none" d=""/></g></g><g style="fill:#000000;fill-opacity:1;"><g transform="translate(522.559255, 339.772933)"><path style="stroke:none" d=""/></g></g><g style="fill:#000000;fill-opacity:1;"><g transform="translate(542.928243, 339.772933)"><path style="stroke:none" d=""/></g></g><g style="fill:#000000;fill-opacity:1;"><g transform="translate(563.291339, 339.772933)"><path style="stroke:none" d=""/></g></g><g style="fill:#000000;fill-opacity:1;"><g transform="translate(583.654436, 339.772933)"><path style="stroke:none" d=""/></g></g><g style="fill:#000000;fill-opacity:1;"><g transform="translate(604.017532, 339.772933)"><path style="stroke:none" d=""/></g></g><g style="fill:#000000;fill-opacity:1;"><g transform="translate(624.380628, 339.772933)"><path style="stroke:none" d=""/></g></g><g style="fill:#000000;fill-opacity:1;"><g transform="translate(644.749635, 339.772933)"><path style="stroke:none" d="M 1.5 -38.625 L 1.5 -40.59375 L 21.515625 -40.59375 L 21.515625 -53.484375 L 23.6875 -53.484375 L 23.6875 -40.59375 L 43.71875 -40.59375 L 43.71875 -38.625 Z M 51.71875 11.40625 L 51.71875 -52.125 L 53.890625 -52.125 L 53.890625 -21.984375 L 65.15625 -21.984375 L 65.15625 -20.015625 L 53.890625 -20.015625 L 53.890625 11.40625 Z M 21.578125 8.015625 C 16.242188 8.015625 12.070312 6.597656 9.0625 3.765625 C 6.050781 0.941406 4.546875 -3.476562 4.546875 -9.5 L 4.546875 -13.921875 C 4.546875 -19.984375 6.035156 -24.414062 9.015625 -27.21875 C 12.003906 -30.019531 16.191406 -31.421875 21.578125 -31.421875 L 23.625 -31.421875 C 29.007812 -31.421875 33.191406 -30.019531 36.171875 -27.21875 C 39.160156 -24.414062 40.65625 -19.984375 40.65625 -13.921875 L 40.65625 -9.5 C 40.65625 -3.476562 39.160156 0.941406 36.171875 3.765625 C 33.191406 6.597656 29.007812 8.015625 23.625 8.015625 Z M 21.921875 6.046875 L 23.28125 6.046875 C 27.9375 6.046875 31.632812 4.753906 34.375 2.171875 C 37.113281 -0.410156 38.484375 -4.503906 38.484375 -10.109375 L 38.484375 -13.296875 C 38.484375 -18.953125 37.113281 -23.054688 34.375 -25.609375 C 31.632812 -28.171875 27.9375 -29.453125 23.28125 -29.453125 L 21.921875 -29.453125 C 17.265625 -29.453125 13.566406 -28.171875 10.828125 -25.609375 C 8.085938 -23.054688 6.71875 -18.953125 6.71875 -13.296875 L 6.71875 -10.109375 C 6.71875 -4.503906 8.085938 -0.410156 10.828125 2.171875 C 13.566406 4.753906 17.265625 6.046875 21.921875 6.046875 Z M 21.921875 6.046875 "/></g></g><g style="fill:#000000;fill-opacity:1;"><g transform="translate(709.911561, 339.772933)"><path style="stroke:none" d="M 45.6875 -26.75 L 45.6875 -52.125 L 47.859375 -52.125 L 47.859375 11.40625 L 45.6875 11.40625 L 45.6875 -24.78125 L 30.953125 -24.78125 L 30.953125 -26.75 Z M 59.65625 -52.125 L 61.828125 -52.125 L 61.828125 11.40625 L 59.65625 11.40625 Z M 18.125 -20.5625 C 19.976562 -15.5 22.273438 -10.703125 25.015625 -6.171875 C 27.753906 -1.648438 31.269531 2.238281 35.5625 5.5 L 35.5625 8.140625 C 31.3125 5.160156 27.769531 1.65625 24.9375 -2.375 C 22.113281 -6.40625 19.59375 -11.25 17.375 -16.90625 C 16.195312 -11.832031 14.488281 -7.132812 12.25 -2.8125 C 10.007812 1.507812 7.015625 5.160156 3.265625 8.140625 L 3.265625 5.5 C 6.378906 2.601562 8.910156 -0.910156 10.859375 -5.046875 C 12.804688 -9.191406 14.285156 -13.753906 15.296875 -18.734375 C 16.316406 -23.710938 17.019531 -28.945312 17.40625 -34.4375 C 17.789062 -39.9375 17.984375 -45.492188 17.984375 -51.109375 L 20.15625 -51.109375 C 20.15625 -45.898438 20.03125 -40.707031 19.78125 -35.53125 C 19.53125 -30.351562 18.976562 -25.363281 18.125 -20.5625 Z M 18.125 -20.5625 "/></g></g><g style="fill:#000000;fill-opacity:1;"><g transform="translate(775.073486, 339.772933)"><path style="stroke:none" d="M 20.96875 -18.46875 C 15.632812 -18.46875 11.722656 -19.773438 9.234375 -22.390625 C 6.742188 -25.015625 5.5 -28.75 5.5 -33.59375 L 5.5 -35.640625 C 5.5 -40.472656 6.742188 -44.203125 9.234375 -46.828125 C 11.722656 -49.453125 15.632812 -50.765625 20.96875 -50.765625 L 44.125 -50.765625 C 49.457031 -50.765625 53.367188 -49.460938 55.859375 -46.859375 C 58.347656 -44.265625 59.59375 -40.523438 59.59375 -35.640625 L 59.59375 -33.59375 C 59.59375 -28.707031 58.347656 -24.960938 55.859375 -22.359375 C 53.367188 -19.765625 49.457031 -18.46875 44.125 -18.46875 Z M 21.578125 -20.4375 L 43.515625 -20.4375 C 48.578125 -20.4375 52.160156 -21.585938 54.265625 -23.890625 C 56.367188 -26.203125 57.421875 -29.550781 57.421875 -33.9375 L 57.421875 -35.296875 C 57.421875 -39.679688 56.367188 -43.023438 54.265625 -45.328125 C 52.160156 -47.640625 48.578125 -48.796875 43.515625 -48.796875 L 21.578125 -48.796875 C 16.515625 -48.796875 12.929688 -47.640625 10.828125 -45.328125 C 8.722656 -43.023438 7.671875 -39.679688 7.671875 -35.296875 L 7.671875 -33.9375 C 7.671875 -29.550781 8.722656 -26.203125 10.828125 -23.890625 C 12.929688 -21.585938 16.515625 -20.4375 21.578125 -20.4375 Z M 1.828125 8.34375 L 1.828125 6.375 L 17.84375 6.375 L 17.84375 -14.1875 L 20.015625 -14.1875 L 20.015625 6.375 L 45 6.375 L 45 -14.1875 L 47.171875 -14.1875 L 47.171875 6.375 L 63.265625 6.375 L 63.265625 8.34375 Z M 1.828125 8.34375 "/></g></g><g style="fill:#000000;fill-opacity:1;"><g transform="translate(840.235399, 339.772933)"><path style="stroke:none" d="M 7.875 -3.796875 L 7.390625 -50.765625 L 10.859375 -50.765625 L 10.390625 -3.796875 Z M 6.78125 7.671875 L 6.78125 2.78125 L 11.46875 2.78125 L 11.46875 7.671875 Z M 6.78125 7.671875 "/></g></g><g style="fill:#ebe9e7;fill-opacity:1;"><g transform="translate(82.392549, 85.140568)"><path style="stroke:none" d="M 7.1875 2.875 C 5.03125 2.875 3.425781 2.4375 2.375 1.5625 C 1.320312 0.6875 0.796875 -0.679688 0.796875 -2.546875 L 0.796875 -3 C 0.796875 -3.925781 1.035156 -4.785156 1.515625 -5.578125 C 2.003906 -6.378906 2.769531 -6.976562 3.8125 -7.375 L 3.8125 -7.46875 C 2.863281 -7.863281 2.160156 -8.460938 1.703125 -9.265625 C 1.253906 -10.078125 1.03125 -10.957031 1.03125 -11.90625 L 1.03125 -12.328125 C 1.03125 -14.179688 1.53125 -15.546875 2.53125 -16.421875 C 3.539062 -17.296875 5.09375 -17.734375 7.1875 -17.734375 L 7.78125 -17.734375 C 9.875 -17.734375 11.421875 -17.296875 12.421875 -16.421875 C 13.429688 -15.546875 13.9375 -14.179688 13.9375 -12.328125 L 13.9375 -11.90625 C 13.9375 -10.957031 13.710938 -10.078125 13.265625 -9.265625 C 12.828125 -8.460938 12.125 -7.863281 11.15625 -7.46875 L 11.15625 -7.375 C 12.195312 -6.976562 12.957031 -6.378906 13.4375 -5.578125 C 13.925781 -4.785156 14.171875 -3.925781 14.171875 -3 L 14.171875 -2.546875 C 14.171875 -0.679688 13.648438 0.6875 12.609375 1.5625 C 11.566406 2.4375 9.957031 2.875 7.78125 2.875 Z M 7.390625 -9 L 7.578125 -9 C 8.492188 -9 9.21875 -9.207031 9.75 -9.625 C 10.28125 -10.039062 10.546875 -10.722656 10.546875 -11.671875 L 10.546875 -12.046875 C 10.546875 -12.929688 10.300781 -13.566406 9.8125 -13.953125 C 9.332031 -14.347656 8.585938 -14.546875 7.578125 -14.546875 L 7.390625 -14.546875 C 6.378906 -14.546875 5.628906 -14.347656 5.140625 -13.953125 C 4.660156 -13.566406 4.421875 -12.929688 4.421875 -12.046875 L 4.421875 -11.671875 C 4.421875 -10.722656 4.6875 -10.039062 5.21875 -9.625 C 5.75 -9.207031 6.472656 -9 7.390625 -9 Z M 7.28125 -0.296875 L 7.703125 -0.296875 C 8.648438 -0.296875 9.398438 -0.5 9.953125 -0.90625 C 10.503906 -1.3125 10.78125 -1.984375 10.78125 -2.921875 L 10.78125 -3.09375 C 10.78125 -4.050781 10.503906 -4.738281 9.953125 -5.15625 C 9.398438 -5.582031 8.648438 -5.796875 7.703125 -5.796875 L 7.28125 -5.796875 C 6.320312 -5.796875 5.566406 -5.582031 5.015625 -5.15625 C 4.460938 -4.738281 4.1875 -4.050781 4.1875 -3.09375 L 4.1875 -2.921875 C 4.1875 -1.984375 4.460938 -1.3125 5.015625 -0.90625 C 5.566406 -0.5 6.320312 -0.296875 7.28125 -0.296875 Z M 7.28125 -0.296875 "/></g></g><g style="fill:#ebe9e7;fill-opacity:1;"><g transform="translate(97.355263, 85.140568)"><path style="stroke:none" d="M 18.171875 -5.3125 L 18.171875 -5.828125 L 12.796875 -5.828125 L 12.796875 -7.65625 L 18.171875 -7.65625 L 18.171875 -17.96875 L 21.421875 -17.96875 L 21.421875 -5.3125 Z M 7.234375 -11.671875 C 5.546875 -11.671875 4.285156 -11.914062 3.453125 -12.40625 C 2.617188 -12.894531 2.203125 -13.59375 2.203125 -14.5 L 2.203125 -15 C 2.203125 -15.914062 2.617188 -16.613281 3.453125 -17.09375 C 4.285156 -17.582031 5.546875 -17.828125 7.234375 -17.828125 L 10.625 -17.828125 C 12.289062 -17.828125 13.539062 -17.582031 14.375 -17.09375 C 15.21875 -16.613281 15.640625 -15.914062 15.640625 -15 L 15.640625 -14.5 C 15.640625 -13.59375 15.21875 -12.894531 14.375 -12.40625 C 13.539062 -11.914062 12.289062 -11.671875 10.625 -11.671875 Z M 7.71875 -13.796875 L 10.109375 -13.796875 C 11.023438 -13.796875 11.679688 -13.863281 12.078125 -14 C 12.472656 -14.144531 12.671875 -14.367188 12.671875 -14.671875 L 12.671875 -14.8125 C 12.671875 -15.125 12.472656 -15.347656 12.078125 -15.484375 C 11.679688 -15.617188 11.023438 -15.6875 10.109375 -15.6875 L 7.71875 -15.6875 C 6.8125 -15.6875 6.15625 -15.617188 5.75 -15.484375 C 5.34375 -15.347656 5.140625 -15.125 5.140625 -14.8125 L 5.140625 -14.671875 C 5.140625 -14.367188 5.34375 -14.144531 5.75 -14 C 6.15625 -13.863281 6.8125 -13.796875 7.71875 -13.796875 Z M 6.625 -5.3125 L 6.625 -8.296875 L 1.03125 -8.296875 L 1.03125 -10.53125 L 16.859375 -10.53125 L 16.859375 -8.296875 L 9.75 -8.296875 L 9.75 -5.3125 Z M 2.90625 3.921875 L 2.90625 -1.328125 L 18.171875 -1.328125 L 18.171875 -2.484375 L 2.90625 -2.484375 L 2.90625 -4.53125 L 21.421875 -4.53125 L 21.421875 0.65625 L 6.15625 0.65625 L 6.15625 1.875 L 21.59375 1.875 L 21.59375 3.921875 Z M 2.90625 3.921875 "/></g></g><g style="fill:#ebe9e7;fill-opacity:1;"><g transform="translate(119.799333, 85.140568)"><path style="stroke:none" d=""/></g></g><g style="fill:#ebe9e7;fill-opacity:1;"><g transform="translate(126.813106, 85.140568)"><path style="stroke:none" d="M 0.5625 2.640625 L 0.5625 -0.15625 C 0.5625 -0.65625 0.671875 -1.144531 0.890625 -1.625 C 1.117188 -2.101562 1.40625 -2.550781 1.75 -2.96875 L 8.296875 -10.3125 C 8.703125 -10.6875 9 -11.019531 9.1875 -11.3125 C 9.375 -11.613281 9.46875 -12.003906 9.46875 -12.484375 C 9.46875 -13.140625 9.226562 -13.609375 8.75 -13.890625 C 8.28125 -14.171875 7.539062 -14.3125 6.53125 -14.3125 L 1.140625 -14.3125 L 1.140625 -17.5 L 7.15625 -17.5 C 9.039062 -17.5 10.484375 -17.132812 11.484375 -16.40625 C 12.492188 -15.6875 13 -14.578125 13 -13.078125 L 13 -12.953125 C 13 -12.171875 12.910156 -11.492188 12.734375 -10.921875 C 12.566406 -10.359375 12.285156 -9.789062 11.890625 -9.21875 C 11.492188 -8.65625 10.953125 -7.96875 10.265625 -7.15625 L 4.65625 -1.125 C 4.445312 -0.90625 4.34375 -0.707031 4.34375 -0.53125 L 12.796875 -0.53125 L 12.796875 2.640625 Z M 0.5625 2.640625 "/></g></g><g style="fill:#ebe9e7;fill-opacity:1;"><g transform="translate(140.37307, 85.140568)"><path style="stroke:none" d="M 7.1875 2.875 C 5.03125 2.875 3.425781 2.4375 2.375 1.5625 C 1.320312 0.6875 0.796875 -0.679688 0.796875 -2.546875 L 0.796875 -3 C 0.796875 -3.925781 1.035156 -4.785156 1.515625 -5.578125 C 2.003906 -6.378906 2.769531 -6.976562 3.8125 -7.375 L 3.8125 -7.46875 C 2.863281 -7.863281 2.160156 -8.460938 1.703125 -9.265625 C 1.253906 -10.078125 1.03125 -10.957031 1.03125 -11.90625 L 1.03125 -12.328125 C 1.03125 -14.179688 1.53125 -15.546875 2.53125 -16.421875 C 3.539062 -17.296875 5.09375 -17.734375 7.1875 -17.734375 L 7.78125 -17.734375 C 9.875 -17.734375 11.421875 -17.296875 12.421875 -16.421875 C 13.429688 -15.546875 13.9375 -14.179688 13.9375 -12.328125 L 13.9375 -11.90625 C 13.9375 -10.957031 13.710938 -10.078125 13.265625 -9.265625 C 12.828125 -8.460938 12.125 -7.863281 11.15625 -7.46875 L 11.15625 -7.375 C 12.195312 -6.976562 12.957031 -6.378906 13.4375 -5.578125 C 13.925781 -4.785156 14.171875 -3.925781 14.171875 -3 L 14.171875 -2.546875 C 14.171875 -0.679688 13.648438 0.6875 12.609375 1.5625 C 11.566406 2.4375 9.957031 2.875 7.78125 2.875 Z M 7.390625 -9 L 7.578125 -9 C 8.492188 -9 9.21875 -9.207031 9.75 -9.625 C 10.28125 -10.039062 10.546875 -10.722656 10.546875 -11.671875 L 10.546875 -12.046875 C 10.546875 -12.929688 10.300781 -13.566406 9.8125 -13.953125 C 9.332031 -14.347656 8.585938 -14.546875 7.578125 -14.546875 L 7.390625 -14.546875 C 6.378906 -14.546875 5.628906 -14.347656 5.140625 -13.953125 C 4.660156 -13.566406 4.421875 -12.929688 4.421875 -12.046875 L 4.421875 -11.671875 C 4.421875 -10.722656 4.6875 -10.039062 5.21875 -9.625 C 5.75 -9.207031 6.472656 -9 7.390625 -9 Z M 7.28125 -0.296875 L 7.703125 -0.296875 C 8.648438 -0.296875 9.398438 -0.5 9.953125 -0.90625 C 10.503906 -1.3125 10.78125 -1.984375 10.78125 -2.921875 L 10.78125 -3.09375 C 10.78125 -4.050781 10.503906 -4.738281 9.953125 -5.15625 C 9.398438 -5.582031 8.648438 -5.796875 7.703125 -5.796875 L 7.28125 -5.796875 C 6.320312 -5.796875 5.566406 -5.582031 5.015625 -5.15625 C 4.460938 -4.738281 4.1875 -4.050781 4.1875 -3.09375 L 4.1875 -2.921875 C 4.1875 -1.984375 4.460938 -1.3125 5.015625 -0.90625 C 5.566406 -0.5 6.320312 -0.296875 7.28125 -0.296875 Z M 7.28125 -0.296875 "/></g></g><g style="fill:#ebe9e7;fill-opacity:1;"><g transform="translate(155.335783, 85.140568)"><path style="stroke:none" d="M 17.875 -7.46875 L 17.875 -17.96875 L 21 -17.96875 L 21 -7.46875 Z M 7.515625 -7.8125 C 5.617188 -7.8125 4.132812 -8.207031 3.0625 -9 C 1.988281 -9.800781 1.453125 -10.988281 1.453125 -12.5625 L 1.453125 -12.9375 C 1.453125 -14.507812 1.988281 -15.691406 3.0625 -16.484375 C 4.132812 -17.285156 5.617188 -17.6875 7.515625 -17.6875 L 7.96875 -17.6875 C 9.863281 -17.6875 11.347656 -17.285156 12.421875 -16.484375 C 13.492188 -15.691406 14.03125 -14.507812 14.03125 -12.9375 L 14.03125 -12.5625 C 14.03125 -10.988281 13.488281 -9.800781 12.40625 -9 C 11.320312 -8.207031 9.84375 -7.8125 7.96875 -7.8125 Z M 7.625 -10.546875 L 7.859375 -10.546875 C 8.796875 -10.546875 9.535156 -10.722656 10.078125 -11.078125 C 10.628906 -11.429688 10.90625 -11.957031 10.90625 -12.65625 L 10.90625 -12.84375 C 10.90625 -13.539062 10.628906 -14.066406 10.078125 -14.421875 C 9.535156 -14.773438 8.796875 -14.953125 7.859375 -14.953125 L 7.625 -14.953125 C 6.675781 -14.953125 5.929688 -14.773438 5.390625 -14.421875 C 4.847656 -14.066406 4.578125 -13.539062 4.578125 -12.84375 L 4.578125 -12.65625 C 4.578125 -11.957031 4.847656 -11.429688 5.390625 -11.078125 C 5.929688 -10.722656 6.675781 -10.546875 7.625 -10.546875 Z M 2.765625 3.921875 L 2.765625 -2.484375 L 17.75 -2.484375 L 17.75 -4 L 2.765625 -4 L 2.765625 -6.40625 L 21 -6.40625 L 21 -0.0625 L 6.015625 -0.0625 L 6.015625 1.515625 L 21.171875 1.515625 L 21.171875 3.921875 Z M 2.765625 3.921875 "/></g></g><g style="fill:#ebe9e7;fill-opacity:1;"><g transform="translate(177.779854, 85.140568)"><path style="stroke:none" d=""/></g></g><g style="fill:#ebe9e7;fill-opacity:1;"><g transform="translate(184.793627, 85.140568)"><path style="stroke:none" d="M 0.625 -13.9375 L 0.625 -16.5625 L 6.015625 -16.5625 L 6.015625 -18.4375 L 9.140625 -18.4375 L 9.140625 -16.5625 L 14.578125 -16.5625 L 14.578125 -13.9375 Z M 16.28125 -3.484375 L 16.28125 -17.96875 L 19.53125 -17.96875 L 19.53125 -12.15625 L 22.453125 -12.15625 L 22.453125 -9.125 L 19.53125 -9.125 L 19.53125 -3.484375 Z M 7.328125 -3.90625 C 5.460938 -3.90625 4.019531 -4.269531 3 -5 C 1.976562 -5.738281 1.46875 -6.816406 1.46875 -8.234375 L 1.46875 -8.5625 C 1.46875 -10 1.972656 -11.078125 2.984375 -11.796875 C 4.003906 -12.523438 5.453125 -12.890625 7.328125 -12.890625 L 7.875 -12.890625 C 9.738281 -12.890625 11.179688 -12.523438 12.203125 -11.796875 C 13.222656 -11.078125 13.734375 -10 13.734375 -8.5625 L 13.734375 -8.234375 C 13.734375 -6.816406 13.222656 -5.738281 12.203125 -5 C 11.179688 -4.269531 9.738281 -3.90625 7.875 -3.90625 Z M 7.4375 -6.640625 L 7.765625 -6.640625 C 8.679688 -6.640625 9.398438 -6.78125 9.921875 -7.0625 C 10.453125 -7.34375 10.71875 -7.75 10.71875 -8.28125 L 10.71875 -8.515625 C 10.71875 -9.054688 10.453125 -9.460938 9.921875 -9.734375 C 9.398438 -10.015625 8.679688 -10.15625 7.765625 -10.15625 L 7.4375 -10.15625 C 6.53125 -10.15625 5.8125 -10.015625 5.28125 -9.734375 C 4.75 -9.460938 4.484375 -9.054688 4.484375 -8.515625 L 4.484375 -8.28125 C 4.484375 -7.75 4.75 -7.34375 5.28125 -7.0625 C 5.8125 -6.78125 6.53125 -6.640625 7.4375 -6.640625 Z M 16.28125 4.15625 L 16.28125 0.25 L 1.921875 0.25 L 1.921875 -2.5 L 19.53125 -2.5 L 19.53125 4.15625 Z M 16.28125 4.15625 "/></g></g><g style="fill:#ebe9e7;fill-opacity:1;"><g transform="translate(207.237697, 85.140568)"><path style="stroke:none" d="M 15.828125 -10.8125 L 15.828125 -6.359375 L 12.890625 -6.359375 L 12.890625 -17.96875 L 15.828125 -17.96875 L 15.828125 -13.734375 L 18.484375 -13.734375 L 18.484375 -17.96875 L 21.421875 -17.96875 L 21.421875 -5.75 L 18.484375 -5.75 L 18.484375 -10.8125 Z M 6.4375 -9.609375 C 5.90625 -8.796875 5.191406 -8.15625 4.296875 -7.6875 C 3.410156 -7.226562 2.3125 -6.828125 1 -6.484375 L 1 -9.421875 C 1.894531 -9.734375 2.601562 -10.113281 3.125 -10.5625 C 3.644531 -11.007812 4.03125 -11.554688 4.28125 -12.203125 C 4.53125 -12.847656 4.6875 -13.613281 4.75 -14.5 C 4.820312 -15.382812 4.859375 -16.421875 4.859375 -17.609375 L 7.875 -17.609375 C 7.875 -16.515625 7.84375 -15.53125 7.78125 -14.65625 C 7.726562 -13.789062 7.625 -13.015625 7.46875 -12.328125 C 7.988281 -11.734375 8.585938 -11.238281 9.265625 -10.84375 C 9.953125 -10.445312 10.722656 -10.128906 11.578125 -9.890625 L 11.578125 -6.953125 C 10.515625 -7.203125 9.5625 -7.546875 8.71875 -7.984375 C 7.882812 -8.429688 7.125 -8.972656 6.4375 -9.609375 Z M 16.15625 -5.171875 C 18.03125 -5.171875 19.410156 -4.816406 20.296875 -4.109375 C 21.191406 -3.398438 21.640625 -2.375 21.640625 -1.03125 L 21.640625 -0.09375 C 21.640625 1.25 21.191406 2.273438 20.296875 2.984375 C 19.410156 3.691406 18.03125 4.046875 16.15625 4.046875 L 7.875 4.046875 C 5.988281 4.046875 4.601562 3.691406 3.71875 2.984375 C 2.84375 2.273438 2.40625 1.25 2.40625 -0.09375 L 2.40625 -1.03125 C 2.40625 -2.375 2.84375 -3.398438 3.71875 -4.109375 C 4.601562 -4.816406 5.988281 -5.171875 7.875 -5.171875 Z M 18.390625 -0.390625 L 18.390625 -0.703125 C 18.390625 -1.234375 18.164062 -1.625 17.71875 -1.875 C 17.269531 -2.132812 16.503906 -2.265625 15.421875 -2.265625 L 8.609375 -2.265625 C 7.515625 -2.265625 6.75 -2.128906 6.3125 -1.859375 C 5.875 -1.597656 5.65625 -1.210938 5.65625 -0.703125 L 5.65625 -0.390625 C 5.65625 0.117188 5.875 0.5 6.3125 0.75 C 6.75 1.007812 7.515625 1.140625 8.609375 1.140625 L 15.421875 1.140625 C 16.503906 1.140625 17.269531 1.007812 17.71875 0.75 C 18.164062 0.5 18.390625 0.117188 18.390625 -0.390625 Z M 18.390625 -0.390625 "/></g></g><g style="fill:#ebe9e7;fill-opacity:1;"><g transform="translate(229.681767, 85.140568)"><path style="stroke:none" d="M 1.3125 -13.59375 L 1.3125 -16.296875 L 7.328125 -16.296875 L 7.328125 -18.59375 L 10.546875 -18.59375 L 10.546875 -16.296875 L 16.578125 -16.296875 L 16.578125 -13.59375 Z M 18.109375 3.921875 L 18.109375 -17.96875 L 21.359375 -17.96875 L 21.359375 3.921875 Z M 7.75 -3.65625 C 6 -3.65625 4.6875 -3.992188 3.8125 -4.671875 C 2.9375 -5.359375 2.5 -6.410156 2.5 -7.828125 L 2.5 -8.28125 C 2.5 -9.71875 2.9375 -10.773438 3.8125 -11.453125 C 4.6875 -12.128906 6 -12.46875 7.75 -12.46875 L 10.125 -12.46875 C 11.882812 -12.46875 13.195312 -12.128906 14.0625 -11.453125 C 14.9375 -10.773438 15.375 -9.71875 15.375 -8.28125 L 15.375 -7.828125 C 15.375 -6.410156 14.9375 -5.359375 14.0625 -4.671875 C 13.195312 -3.992188 11.882812 -3.65625 10.125 -3.65625 Z M 8 -6.359375 L 9.921875 -6.359375 C 10.742188 -6.359375 11.351562 -6.484375 11.75 -6.734375 C 12.144531 -6.984375 12.34375 -7.390625 12.34375 -7.953125 L 12.34375 -8.15625 C 12.34375 -8.71875 12.144531 -9.125 11.75 -9.375 C 11.351562 -9.625 10.742188 -9.75 9.921875 -9.75 L 8 -9.75 C 7.175781 -9.75 6.554688 -9.625 6.140625 -9.375 C 5.722656 -9.125 5.515625 -8.71875 5.515625 -8.15625 L 5.515625 -7.953125 C 5.515625 -7.390625 5.722656 -6.984375 6.140625 -6.734375 C 6.554688 -6.484375 7.175781 -6.359375 8 -6.359375 Z M 1.09375 2.875 L 1.09375 0.046875 L 7.296875 0.046875 L 7.296875 -2.71875 L 10.546875 -2.71875 L 10.546875 0.046875 L 16.796875 0.046875 L 16.796875 2.875 Z M 1.09375 2.875 "/></g></g><g style="fill:#ebe9e7;fill-opacity:1;"><g transform="translate(252.125837, 85.140568)"><path style="stroke:none" d="M 19.53125 -13.875 L 22.453125 -13.875 L 22.453125 -10.828125 L 19.53125 -10.828125 L 19.53125 -6.125 L 16.28125 -6.125 L 16.28125 -17.96875 L 19.53125 -17.96875 Z M 7.28125 -9.84375 C 6.601562 -9 5.710938 -8.332031 4.609375 -7.84375 C 3.515625 -7.351562 2.164062 -6.929688 0.5625 -6.578125 L 0.5625 -9.546875 C 1.71875 -9.835938 2.644531 -10.203125 3.34375 -10.640625 C 4.039062 -11.078125 4.566406 -11.617188 4.921875 -12.265625 C 5.285156 -12.910156 5.53125 -13.695312 5.65625 -14.625 L 0.5625 -14.625 L 0.5625 -17.375 L 14.21875 -17.375 L 14.21875 -14.625 L 8.90625 -14.625 C 8.875 -14.21875 8.820312 -13.828125 8.75 -13.453125 C 8.6875 -13.085938 8.609375 -12.742188 8.515625 -12.421875 C 9.296875 -11.847656 10.148438 -11.367188 11.078125 -10.984375 C 12.015625 -10.597656 13.0625 -10.273438 14.21875 -10.015625 L 14.21875 -7.046875 C 12.832031 -7.304688 11.566406 -7.664062 10.421875 -8.125 C 9.285156 -8.582031 8.238281 -9.15625 7.28125 -9.84375 Z M 14.296875 -5.3125 C 16.179688 -5.3125 17.5625 -4.953125 18.4375 -4.234375 C 19.320312 -3.515625 19.765625 -2.46875 19.765625 -1.09375 L 19.765625 -0.15625 C 19.765625 1.207031 19.320312 2.25 18.4375 2.96875 C 17.5625 3.6875 16.179688 4.046875 14.296875 4.046875 L 7.421875 4.046875 C 5.546875 4.046875 4.160156 3.6875 3.265625 2.96875 C 2.378906 2.25 1.9375 1.207031 1.9375 -0.15625 L 1.9375 -1.09375 C 1.9375 -2.46875 2.378906 -3.515625 3.265625 -4.234375 C 4.160156 -4.953125 5.546875 -5.3125 7.421875 -5.3125 Z M 16.515625 -0.484375 L 16.515625 -0.765625 C 16.515625 -1.296875 16.289062 -1.703125 15.84375 -1.984375 C 15.40625 -2.265625 14.640625 -2.40625 13.546875 -2.40625 L 8.15625 -2.40625 C 7.070312 -2.40625 6.304688 -2.265625 5.859375 -1.984375 C 5.410156 -1.703125 5.1875 -1.296875 5.1875 -0.765625 L 5.1875 -0.484375 C 5.1875 0.0351562 5.410156 0.4375 5.859375 0.71875 C 6.304688 1 7.070312 1.140625 8.15625 1.140625 L 13.546875 1.140625 C 14.640625 1.140625 15.40625 1 15.84375 0.71875 C 16.289062 0.4375 16.515625 0.0351562 16.515625 -0.484375 Z M 16.515625 -0.484375 "/></g></g><g style="fill:#ebe9e7;fill-opacity:1;"><g transform="translate(274.569907, 85.140568)"><path style="stroke:none" d=""/></g></g><g style="fill:#ebe9e7;fill-opacity:1;"><g transform="translate(281.583681, 85.140568)"><path style="stroke:none" d="M 17.78125 -1.890625 L 17.78125 -10.90625 L 12.984375 -10.90625 L 12.984375 -13.796875 L 17.78125 -13.796875 L 17.78125 -17.96875 L 21.03125 -17.96875 L 21.03125 -1.890625 Z M 7.96875 -8.8125 C 7.300781 -7.851562 6.425781 -7.082031 5.34375 -6.5 C 4.257812 -5.925781 2.945312 -5.425781 1.40625 -5 L 1.40625 -7.96875 C 2.476562 -8.332031 3.351562 -8.773438 4.03125 -9.296875 C 4.707031 -9.816406 5.234375 -10.453125 5.609375 -11.203125 C 5.984375 -11.960938 6.242188 -12.867188 6.390625 -13.921875 C 6.546875 -14.984375 6.625 -16.210938 6.625 -17.609375 L 9.875 -17.609375 C 9.875 -15.097656 9.65625 -13.066406 9.21875 -11.515625 C 10.007812 -10.640625 10.878906 -9.914062 11.828125 -9.34375 C 12.785156 -8.769531 13.863281 -8.3125 15.0625 -7.96875 L 15.0625 -5 C 13.644531 -5.332031 12.359375 -5.8125 11.203125 -6.4375 C 10.046875 -7.070312 8.96875 -7.863281 7.96875 -8.8125 Z M 6.0625 1.03125 L 21.1875 1.03125 L 21.1875 3.921875 L 2.8125 3.921875 L 2.8125 -3.703125 L 6.0625 -3.703125 Z M 6.0625 1.03125 "/></g></g><g style="fill:#ebe9e7;fill-opacity:1;"><g transform="translate(304.027751, 85.140568)"><path style="stroke:none" d="M 17.6875 3.921875 L 17.6875 -6.5 L 13.328125 -6.5 L 13.328125 -9.546875 L 17.6875 -9.546875 L 17.6875 -17.96875 L 20.9375 -17.96875 L 20.9375 3.921875 Z M 1.515625 3.046875 L 1.515625 -0.390625 C 3.429688 -0.765625 4.945312 -1.269531 6.0625 -1.90625 C 7.1875 -2.539062 7.984375 -3.335938 8.453125 -4.296875 C 8.929688 -5.265625 9.171875 -6.425781 9.171875 -7.78125 L 9.171875 -14.484375 L 1.515625 -14.484375 L 1.515625 -17.5 L 12.421875 -17.5 L 12.421875 -7.78125 C 12.421875 -5.550781 12.035156 -3.71875 11.265625 -2.28125 C 10.503906 -0.851562 9.320312 0.273438 7.71875 1.109375 C 6.113281 1.941406 4.046875 2.585938 1.515625 3.046875 Z M 1.515625 3.046875 "/></g></g></g></svg>